<!DOCTYPE svg PUBLIC "-//W3C//DTD SVG 1.1//EN" "http://www.w3.org/Graphics/SVG/1.1/DTD/svg11.dtd">
<!-- Uploaded to: SVG Repo, www.svgrepo.com, Transformed by: SVG Repo Mixer Tools -->
<svg version="1.1" id="Capa_1" xmlns="http://www.w3.org/2000/svg" xmlns:xlink="http://www.w3.org/1999/xlink" viewBox="-46 -46 552.00 552.00" xml:space="preserve" width="800px" height="800px" fill="#ffffff" style="--darkreader-inline-fill: var(--darkreader-background-ffffff, #181a1b); --darkreader-inline-stroke: var(--darkreader-text-ffffff, #e8e6e3);" stroke="#ffffff" data-darkreader-inline-fill="" data-darkreader-inline-stroke="">
<g id="SVGRepo_bgCarrier" stroke-width="0" transform="translate(0,0), scale(1)">
<rect x="-46" y="-46" width="552.00" height="552.00" rx="276" fill="#7ed0ec" strokewidth="0" style="--darkreader-inline-fill: var(--darkreader-background-7ed0ec, #125f7a);" data-darkreader-inline-fill=""/>
</g>
<g id="SVGRepo_tracerCarrier" stroke-linecap="round" stroke-linejoin="round"/>
<g id="SVGRepo_iconCarrier"> <g> <path style="fill: rgb(255, 146, 110); --darkreader-inline-fill: var(--darkreader-text-ff926e, #ff8c66);" d="M230,203.06h-29.375v50h-31.25v-50H85.04v-30H120V133.1h30v39.96h109.375v50h31.25v-50h84.335v-30 H340V103.1h-30v39.96h-80v-36h-49.96v-30H230V0c-23.02,0-42.99,12.97-53.06,31.99c-18.22-11.44-42.01-12.68-61.94-1.18 C95.07,42.32,84.25,63.54,85.04,85.04C63.54,84.25,42.32,95.07,30.81,115c-11.5,19.93-10.26,43.72,1.18,61.94 C12.97,187.01,0,206.98,0,230s12.97,42.99,31.99,53.06H230V203.06z" data-darkreader-inline-fill=""/> <path style="fill: rgb(244, 106, 26); --darkreader-inline-fill: var(--darkreader-text-f46a1a, #f5772e);" d="M428.01,176.94c11.44-18.22,12.68-42.01,1.18-61.94c-11.51-19.93-32.73-30.75-54.23-29.96 c0.79-21.5-10.03-42.72-29.96-54.23c-19.93-11.5-43.72-10.26-61.94,1.18C272.99,12.97,253.02,0,230,0v77.06h50.04v30H230v36h80 V103.1h30v39.96h34.96v30h-84.335v50h-31.25v-50H230v110h198.01C447.03,272.99,460,253.02,460,230S447.03,187.01,428.01,176.94z M393.51,253.06h-30v-30h30V253.06z" data-darkreader-inline-fill=""/> <path style="fill: rgb(255, 183, 110); --darkreader-inline-fill: var(--darkreader-text-ffb76e, #ffb366);" d="M329.01,283.06h-99c0,47.828,33.909,87.729,79,96.979V460h40v-79.961 c-6.459,1.325-13.148,2.021-20,2.021V283.06z" data-darkreader-inline-fill=""/> <rect x="180.04" y="77.06" style="fill: rgb(255, 183, 110); --darkreader-inline-fill: var(--darkreader-text-ffb76e, #ffb366);" width="50" height="30" data-darkreader-inline-fill=""/> <polygon style="fill: rgb(255, 183, 110); --darkreader-inline-fill: var(--darkreader-text-ffb76e, #ffb366);" points="150,133.1 120,133.1 120,173.06 85.04,173.06 85.04,203.06 169.375,203.06 169.375,253.06 200.625,253.06 200.625,203.06 230,203.06 230,173.06 150,173.06 " data-darkreader-inline-fill=""/> <rect x="230.04" y="77.06" style="fill: rgb(255, 146, 110); --darkreader-inline-fill: var(--darkreader-text-ff926e, #ff8c66);" width="50" height="30" data-darkreader-inline-fill=""/> <rect x="363.51" y="223.06" style="fill: rgb(255, 146, 110); --darkreader-inline-fill: var(--darkreader-text-ff926e, #ff8c66);" width="30" height="30" data-darkreader-inline-fill=""/> <path style="fill: rgb(255, 146, 110); --darkreader-inline-fill: var(--darkreader-text-ff926e, #ff8c66);" d="M329.01,382.06c6.852,0,13.54-0.697,20-2.021c45.091-9.249,79-49.15,79-96.979h-99V382.06z" data-darkreader-inline-fill=""/> </g> </g>
</svg>